<?xml version="1.0" encoding="utf-8"?>
<svg viewBox="-85.1634 77.4488 476.4066 53.4986" xmlns="http://www.w3.org/2000/svg">
  <path fill="#883b36" d="M -58.976 117.737 C -58.26 113.14 -57.954 107.73 -58.062 101.507 C -58.195 93.744 -58.152 86.586 -57.931 80.033 C -57.904 79.249 -57.513 78.942 -56.757 79.111 C -56.247 79.226 -55.776 79.381 -55.341 79.577 C -54.535 79.932 -54.018 80.733 -54.025 81.612 C -54.119 91.628 -54.183 101.75 -54.216 111.976 C -54.229 116.437 -54.765 119.792 -55.823 122.04 C -57.402 125.394 -59.836 127.827 -63.123 129.34 C -71.035 132.975 -79.068 129.958 -83.456 122.637 C -84.742 120.501 -84.601 118.061 -85.013 115.702 C -85.187 114.723 -84.795 114.112 -83.838 113.869 L -83.306 113.728 C -82.422 113.505 -81.853 113.832 -81.599 114.71 C -80.896 117.079 -80.595 120.147 -79.028 122.111 C -75.855 126.093 -71.876 127.514 -67.089 126.373 C -62.403 125.253 -59.699 122.374 -58.976 117.737 Z" style="stroke-miterlimit: 3.99; transform-origin: -69.539px 104.974px;" transform="matrix(0.999990999699, -0.004261000082, 0.004261000082, 0.999990999699, -3.6542e-8, -3.2786e-8)"/>
  <path fill="#883b36" d="M -45.108 125.563 L -18.118 125.533 C -17.426 125.533 -16.864 126.091 -16.858 126.783 L -16.848 128.533 C -16.848 129.027 -17.095 129.277 -17.588 129.283 L -48.618 129.533 C -49.168 129.54 -49.626 129.113 -49.658 128.563 C -49.992 123.17 -50.045 117.917 -49.818 112.803 C -49.358 102.333 -50.258 91.213 -49.428 80.113 C -49.362 79.147 -48.838 78.66 -47.858 78.653 C -47.678 78.647 -47.498 78.64 -47.318 78.633 C -46.421 78.588 -45.652 79.268 -45.588 80.163 C -45.375 82.93 -45.342 89.297 -45.488 99.263 C -45.615 108.043 -45.695 116.6 -45.728 124.933 C -45.735 125.353 -45.528 125.563 -45.108 125.563 Z" transform="matrix(1, 0, 0, 1, -2.842170943040401e-14, 0)"/>
  <path fill="#1d1f20" d=" M 351.65 110.76 Q 351.75 94.35 351.74 79.67 Q 351.74 77.99 353.31 77.48 Q 353.44 77.43 353.58 77.46 A 2.08 1.99 -85.1 0 1 355.17 79.43 Q 355.61 98.04 355.47 109.69 Q 355.31 122.44 344.38 127.47 Q 341.74 128.69 337.36 128.65 C 330.17 128.59 324.71 125.02 321.43 118.38 Q 319.91 115.29 319.81 109.32 Q 319.60 96.49 319.67 80.09 Q 319.68 77.96 321.80 77.86 L 322.20 77.84 A 1.20 1.19 -1.9 0 1 323.45 79.00 Q 323.80 93.07 323.60 107.98 C 323.52 113.64 324.88 118.81 329.40 122.27 C 332.96 124.98 336.91 125.01 341.05 124.51 Q 343.83 124.17 346.29 122.07 Q 351.61 117.53 351.65 110.76 Z" transform="matrix(1, 0, 0, 1, -2.842170943040401e-14, 0)"/>
  <path fill="#1d1f20" d=" M 382.05 98.72 A 0.60 0.59 -59.0 0 0 382.26 99.58 C 389.01 103.14 393.33 111.30 390.21 118.68 C 388.42 122.92 383.79 128.14 378.72 128.21 Q 370.39 128.32 361.59 128.45 A 0.38 0.37 -0.0 0 1 361.21 128.08 L 361.13 78.73 A 1.05 1.05 0.0 0 1 362.22 77.68 Q 366.83 77.83 371.02 77.65 C 377.72 77.37 382.92 80.11 385.13 86.48 Q 386.18 89.51 385.06 92.67 Q 383.85 96.12 382.05 98.72 Z M 364.65 81.56 L 364.67 98.00 A 0.54 0.54 0.0 0 0 365.22 98.53 L 373.16 98.52 A 9.14 8.73 -0.1 0 0 382.28 89.77 L 382.28 89.71 A 9.14 8.73 -0.1 0 0 373.12 81.00 L 365.18 81.01 A 0.54 0.54 0.0 0 0 364.65 81.56 Z M 364.74 102.43 L 364.78 124.55 A 0.21 0.21 0.0 0 0 364.99 124.76 L 375.84 124.74 A 11.64 11.19 -0.1 0 0 387.46 113.53 L 387.46 113.37 A 11.64 11.19 -0.1 0 0 375.80 102.20 L 364.95 102.22 A 0.21 0.21 0.0 0 0 364.74 102.43 Z" transform="matrix(1, 0, 0, 1, -2.842170943040401e-14, 0)"/>
  <path fill="#1d1f20" d=" M 287.95 124.81 A 0.60 0.59 -14.5 0 0 288.47 125.11 L 314.76 125.00 A 1.95 1.93 -2.7 0 1 316.71 126.76 L 316.74 127.20 Q 316.89 128.78 315.30 128.79 L 284.56 129.04 A 0.98 0.98 0.0 0 1 283.57 128.06 L 283.58 79.72 Q 283.58 78.21 285.09 78.08 L 285.96 78.00 Q 287.59 77.86 287.60 79.50 Q 287.67 101.28 287.78 124.11 Q 287.78 124.49 287.95 124.81 Z" transform="matrix(1, 0, 0, 1, -2.842170943040401e-14, 0)"/>
  <rect fill="#1d1f20" x="-17.75" y="-1.85" transform="matrix(0.9999939076576086, -0.0034906514672382806, 0.0034906514672382806, 0.9999939076576086, 153.69000244140625, 80.19000244140625)" width="35.50" height="3.70" rx="1.68"/>
  <path fill="#1d1f20" d=" M 249.90 80.72 C 254.07 78.43 258.18 78.08 262.91 78.16 Q 270.13 78.27 277.05 83.10 Q 278.08 83.82 278.01 85.07 L 277.93 86.42 Q 277.87 87.54 276.92 86.94 Q 272.33 84.03 268.28 82.63 C 265.00 81.50 260.84 81.86 257.30 82.21 Q 254.81 82.45 252.20 83.75 C 239.75 89.91 235.32 105.57 243.92 116.92 Q 246.54 120.38 251.08 123.02 Q 254.68 125.11 258.78 125.28 Q 265.48 125.56 268.01 124.76 Q 269.76 124.20 275.69 120.55 Q 277.34 119.54 277.94 121.38 Q 278.03 121.66 278.09 121.94 Q 278.49 123.81 276.70 124.51 C 273.88 125.62 271.14 127.63 268.28 128.26 Q 253.52 131.52 243.32 121.32 Q 234.29 112.30 236.31 99.45 Q 238.23 87.14 249.90 80.72 Z" transform="matrix(1, 0, 0, 1, -2.842170943040401e-14, 0)"/>
  <path fill="#1d1f20" d=" M 65.61 87.22 Q 65.24 86.57 64.94 87.25 Q 57.46 104.65 48.12 128.94 A 1.87 1.86 8.2 0 1 46.52 130.13 Q 45.72 130.20 44.98 129.94 Q 43.90 129.56 44.30 128.48 C 46.76 121.87 49.22 115.08 51.95 108.65 C 55.91 99.30 59.16 89.02 64.06 79.43 A 1.65 1.63 -82.7 0 1 65.15 78.58 Q 65.98 78.39 66.33 79.07 C 69.35 84.77 71.39 91.66 73.91 97.95 Q 79.73 112.50 85.52 127.77 Q 86.06 129.20 84.64 129.76 L 84.14 129.95 Q 82.28 130.68 81.58 128.80 C 79.33 122.73 77.19 116.53 74.74 110.45 Q 71.45 102.31 66.98 90.10 Q 66.46 88.69 65.61 87.22 Z" transform="matrix(1, 0, 0, 1, -2.842170943040401e-14, 0)"/>
  <path fill="#1d1f20" d=" M 91.61 80.21 A 1.68 1.68 0.0 0 1 93.29 78.54 L 103.67 78.59 A 26.00 24.69 0.3 0 1 129.54 103.42 L 129.53 105.34 A 26.00 24.69 0.3 0 1 103.41 129.89 L 93.03 129.84 A 1.68 1.68 0.0 0 1 91.35 128.15 L 91.61 80.21 Z M 95.45 82.78 L 95.07 125.49 A 0.71 0.71 0.0 0 0 95.78 126.21 L 103.15 126.27 A 22.86 21.92 0.5 0 0 126.20 104.55 L 126.20 104.26 A 22.86 21.92 0.5 0 0 103.53 82.14 L 96.16 82.07 A 0.71 0.71 0.0 0 0 95.45 82.78 Z" transform="matrix(1, 0, 0, 1, -2.842170943040401e-14, 0)"/>
  <path fill="#1d1f20" d=" M 181.58 125.68 Q 182.29 125.85 183.25 125.84 Q 195.65 125.70 208.51 125.71 Q 209.85 125.71 210.11 127.03 L 210.26 127.82 A 1.11 1.10 84.8 0 1 209.18 129.13 L 177.53 129.18 A 0.48 0.47 -83.6 0 1 177.07 128.60 Q 177.74 125.46 177.72 122.26 Q 177.56 100.09 177.43 79.65 Q 177.42 78.33 178.73 78.45 L 179.98 78.56 Q 181.30 78.67 181.29 79.99 L 181.14 125.12 Q 181.14 125.57 181.58 125.68 Z" transform="matrix(1, 0, 0, 1, -2.842170943040401e-14, 0)"/>
  <path fill="#1d1f20" d=" M 13.08 111.63 A 0.49 0.49 0.0 0 0 12.57 112.12 L 12.54 128.75 Q 12.54 130.56 10.78 130.15 Q 10.64 130.12 10.49 130.10 A 2.03 2.03 0.0 0 1 8.76 128.07 L 9.16 81.56 Q 9.19 78.72 12.03 78.71 C 21.57 78.69 29.76 77.68 35.82 86.60 C 39.56 92.09 39.39 99.85 35.21 105.05 Q 31.40 109.79 26.44 111.14 C 22.53 112.21 17.39 111.76 13.08 111.63 Z M 12.89 82.82 L 12.59 107.78 A 0.25 0.25 0.0 0 0 12.84 108.03 L 20.83 108.13 A 13.43 12.64 0.7 0 0 34.42 95.65 L 34.42 95.47 A 13.43 12.64 0.7 0 0 21.15 82.67 L 13.15 82.57 A 0.25 0.25 0.0 0 0 12.89 82.82 Z" transform="matrix(1, 0, 0, 1, -2.842170943040401e-14, 0)"/>
  <path fill="#1d1f20" d=" M 140.58 102.03 L 167.50 102.09 A 1.37 1.37 0.0 0 1 168.71 104.07 L 168.18 105.13 A 1.37 1.37 0.0 0 1 166.96 105.88 L 139.94 106.03 A 1.37 1.37 0.0 0 1 138.71 104.03 L 139.36 102.78 A 1.37 1.37 0.0 0 1 140.58 102.03 Z" transform="matrix(1, 0, 0, 1, -2.842170943040401e-14, 0)"/>
  <rect fill="#1d1f20" x="-17.70" y="-1.88" transform="matrix(0.9999939076576086, -0.0034906514672382806, 0.0034906514672382806, 0.9999939076576086, 153.6699981689453, 127.66000366210938)" width="35.40" height="3.76" rx="1.36"/>
</svg>